<svg width="330" height="138" viewBox="0 0 330 138" fill="none" xmlns="http://www.w3.org/2000/svg">
<path d="M162.176 75.92C157.995 75.92 154.453 74.4266 151.552 71.44C148.651 68.368 147.2 64.656 147.2 60.304C147.2 57.4026 147.84 54.8 149.12 52.496C150.485 50.192 152.277 48.3573 154.496 46.992C156.8 45.5413 159.36 44.816 162.176 44.816C164.907 44.816 167.381 45.5413 169.6 46.992C171.904 48.3573 173.739 50.192 175.104 52.496C176.469 54.8 177.152 57.4026 177.152 60.304C177.152 63.2053 176.469 65.8506 175.104 68.24C173.739 70.544 171.904 72.4213 169.6 73.872C167.381 75.2373 164.907 75.92 162.176 75.92ZM162.176 138C158.763 138 156.203 137.019 154.496 135.056C152.875 133.093 151.765 130.107 151.168 126.096C150.656 122 150.357 116.752 150.272 110.352C150.272 103.952 150.528 98.704 151.04 94.608C151.637 90.512 152.789 87.5253 154.496 85.648C156.203 83.6853 158.763 82.704 162.176 82.704C165.589 82.704 168.107 83.6853 169.728 85.648C171.435 87.5253 172.587 90.512 173.184 94.608C173.781 98.704 174.08 103.952 174.08 110.352C174.165 116.752 173.909 122 173.312 126.096C172.715 130.107 171.563 133.093 169.856 135.056C168.149 137.019 165.589 138 162.176 138Z" fill="black"/>
<path d="M217.239 138C210.412 138 204.439 136.123 199.319 132.368C194.284 128.613 190.402 123.323 187.671 116.496C184.94 109.584 183.575 101.392 183.575 91.92C183.575 88.08 184.044 83.8986 184.983 79.376C186.007 74.768 187.5 70.416 189.463 66.32C191.426 62.1386 193.815 58.7253 196.631 56.08C199.447 53.4346 202.69 52.112 206.359 52.112C210.199 52.112 213.314 53.4773 215.703 56.208C218.178 58.9386 219.415 62.3093 219.415 66.32C219.415 68.368 218.86 71.0133 217.751 74.256C216.642 77.4133 215.532 80.8267 214.423 84.496C213.314 88.08 212.759 91.5786 212.759 94.992C212.759 99.0026 213.356 101.819 214.551 103.44C215.746 104.976 217.068 105.744 218.519 105.744C220.652 105.744 222.146 104.677 222.999 102.544C223.938 100.411 224.407 96.3573 224.407 90.384C224.407 87.2267 224.364 83.856 224.279 80.272C224.279 76.688 224.578 73.3173 225.175 70.16C225.858 66.9173 227.138 64.272 229.015 62.224C230.978 60.176 233.879 59.152 237.719 59.152C241.559 59.152 244.46 60.1333 246.423 62.096C248.471 64.0586 249.836 66.6186 250.519 69.776C251.202 72.848 251.543 76.1333 251.543 79.632C251.628 83.1306 251.671 86.4586 251.671 89.616C251.671 96.016 252.226 100.496 253.335 103.056C254.444 105.531 256.151 106.768 258.455 106.768C260.162 106.768 261.484 105.829 262.423 103.952C263.362 101.989 263.746 99.0026 263.575 94.992C263.404 91.5786 262.764 88.208 261.655 84.88C260.546 81.4666 259.436 78.1813 258.327 75.024C257.303 71.8667 256.791 68.9653 256.791 66.32C256.791 62.1386 258.114 58.768 260.759 56.208C263.404 53.648 266.434 52.368 269.847 52.368C273.858 52.368 277.314 53.6906 280.215 56.336C283.116 58.9813 285.506 62.352 287.383 66.448C289.26 70.544 290.626 74.8533 291.479 79.376C292.418 83.8986 292.887 88.08 292.887 91.92C292.887 101.392 291.522 109.584 288.791 116.496C286.06 123.323 282.178 128.613 277.143 132.368C272.108 136.037 266.135 137.872 259.223 137.872C255.554 137.872 251.927 137.061 248.343 135.44C244.759 133.733 241.388 131.131 238.231 127.632C235.074 131.131 231.66 133.733 227.991 135.44C224.407 137.147 220.823 138 217.239 138Z" fill="black"/>
<path d="M314.301 75.92C310.12 75.92 306.578 74.4266 303.677 71.44C300.776 68.368 299.325 64.656 299.325 60.304C299.325 57.4026 299.965 54.8 301.245 52.496C302.61 50.192 304.402 48.3573 306.621 46.992C308.925 45.5413 311.485 44.816 314.301 44.816C317.032 44.816 319.506 45.5413 321.725 46.992C324.029 48.3573 325.864 50.192 327.229 52.496C328.594 54.8 329.277 57.4026 329.277 60.304C329.277 63.2053 328.594 65.8506 327.229 68.24C325.864 70.544 324.029 72.4213 321.725 73.872C319.506 75.2373 317.032 75.92 314.301 75.92ZM314.301 138C310.888 138 308.328 137.019 306.621 135.056C305 133.093 303.89 130.107 303.293 126.096C302.781 122 302.482 116.752 302.397 110.352C302.397 103.952 302.653 98.704 303.165 94.608C303.762 90.512 304.914 87.5253 306.621 85.648C308.328 83.6853 310.888 82.704 314.301 82.704C317.714 82.704 320.232 83.6853 321.853 85.648C323.56 87.5253 324.712 90.512 325.309 94.608C325.906 98.704 326.205 103.952 326.205 110.352C326.29 116.752 326.034 122 325.437 126.096C324.84 130.107 323.688 133.093 321.981 135.056C320.274 137.019 317.714 138 314.301 138Z" fill="black"/>
<path d="M71.46 138C63.4894 138 55.9107 135.779 48.724 131.336C41.668 126.893 35.2 121.013 29.32 113.696C23.44 106.248 18.344 98.016 14.032 89C9.85069 79.984 6.58402 70.8373 4.23202 61.56C2.01069 52.2826 0.900024 43.5933 0.900024 35.492C0.900024 29.0893 1.81469 23.34 3.64402 18.244C5.60402 13.0173 8.54402 8.83598 12.464 5.69998C16.384 2.56397 21.3494 0.995972 27.36 0.995972C33.5014 0.995972 38.5974 2.95597 42.648 6.87598C46.8294 10.6653 50.292 15.7613 53.036 22.164C55.78 28.436 58.132 35.4266 60.092 43.136C62.052 50.7146 63.8814 58.3586 65.58 66.068C67.4094 73.6466 69.3694 80.6373 71.46 87.04C74.0734 80.6373 76.2947 73.6466 78.124 66.068C80.084 58.3586 82.044 50.7146 84.004 43.136C85.964 35.4266 88.2507 28.436 90.864 22.164C93.4774 15.7613 96.6787 10.6653 100.468 6.87598C104.388 2.95597 109.223 0.995972 114.972 0.995972C124.119 0.995972 130.783 4.26264 134.964 10.796C139.276 17.3293 141.432 25.5613 141.432 35.492C141.432 43.5933 140.256 52.2826 137.904 61.56C135.683 70.8373 132.481 79.984 128.3 89C124.119 98.016 119.088 106.248 113.208 113.696C107.459 121.013 101.056 126.893 94 131.336C86.944 135.779 79.4307 138 71.46 138Z" fill="white"/>
</svg>
